<svg width="28" height="28" viewBox="0 0 28 28" fill="none" xmlns="http://www.w3.org/2000/svg">
<path d="M21.845 8.55469L27.4513 15.059L22.1668 21.1091L16.5605 14.6048L21.845 8.55469Z" fill="url(#paint0_linear_2021_565)"/>
<path d="M22.1661 21.1137L16.9881 22.2453L11.3818 15.741L16.5599 14.6094L22.1661 21.1137Z" fill="url(#paint1_linear_2021_565)"/>
<path style="mix-blend-mode:color-dodge" d="M16.5615 14.6094L22.1678 21.1137" stroke="url(#paint2_linear_2021_565)" stroke-width="0.2" stroke-miterlimit="10"/>
<path d="M16.5599 14.6048L11.3818 15.7364L16.6663 9.68633L21.8443 8.55469L16.5599 14.6048Z" fill="url(#paint3_linear_2021_565)"/>
<path style="mix-blend-mode:color-dodge" d="M21.8443 8.55469L16.5599 14.6048L11.3818 15.7364" stroke="url(#paint4_linear_2021_565)" stroke-width="0.2" stroke-miterlimit="10"/>
<path d="M14.8128 0.121094L20.419 6.62542L15.1346 12.6755L9.52832 6.17121L14.8128 0.121094Z" fill="url(#paint5_linear_2021_565)"/>
<path d="M15.132 12.6801L9.95393 13.8117L4.34766 7.30742L9.52568 6.17578L15.132 12.6801Z" fill="url(#paint6_linear_2021_565)"/>
<path style="mix-blend-mode:color-dodge" d="M9.52734 6.17578L15.1336 12.6801" stroke="url(#paint7_linear_2021_565)" stroke-width="0.2" stroke-miterlimit="10"/>
<path d="M9.52567 6.17121L4.34766 7.30284L9.63209 1.25273L14.8101 0.121094L9.52567 6.17121Z" fill="url(#paint8_linear_2021_565)"/>
<path style="mix-blend-mode:color-dodge" d="M14.8101 0.121094L9.52567 6.17121L4.34766 7.30284" stroke="url(#paint9_linear_2021_565)" stroke-width="0.2" stroke-miterlimit="10"/>
<path d="M10.595 14.1914L16.2013 20.6957L10.9168 26.7458L5.31055 20.2415L10.595 14.1914Z" fill="url(#paint10_linear_2021_565)"/>
<path d="M10.9171 26.7465L5.73909 27.8781L0.132812 21.3738L5.31083 20.2422L10.9171 26.7465Z" fill="url(#paint11_linear_2021_565)"/>
<path style="mix-blend-mode:color-dodge" d="M5.3125 20.2422L10.9188 26.7465" stroke="url(#paint12_linear_2021_565)" stroke-width="0.2" stroke-miterlimit="10"/>
<path d="M5.31083 20.2415L0.132812 21.3732L5.41725 15.323L10.5953 14.1914L5.31083 20.2415Z" fill="url(#paint13_linear_2021_565)"/>
<path style="mix-blend-mode:color-dodge" d="M10.5953 14.1914L5.31083 20.2415L0.132812 21.3732" stroke="url(#paint14_linear_2021_565)" stroke-width="0.2" stroke-miterlimit="10"/>
<defs>
<linearGradient id="paint0_linear_2021_565" x1="18.9877" y1="17.4444" x2="25.0161" y2="12.2298" gradientUnits="userSpaceOnUse">
<stop stop-color="#FF86BA"/>
<stop offset="0.99" stop-color="#FFE0EB"/>
</linearGradient>
<linearGradient id="paint1_linear_2021_565" x1="15.0035" y1="19.9613" x2="18.5369" y2="16.9049" gradientUnits="userSpaceOnUse">
<stop stop-color="#780071"/>
<stop offset="1" stop-color="#B2138D"/>
</linearGradient>
<linearGradient id="paint2_linear_2021_565" x1="16.4629" y1="17.8615" x2="22.2664" y2="17.8615" gradientUnits="userSpaceOnUse">
<stop stop-color="#1E002B"/>
<stop offset="0.29" stop-color="#631C56"/>
<stop offset="0.63" stop-color="#B03C85"/>
<stop offset="0.88" stop-color="#E050A3"/>
<stop offset="1" stop-color="#F358AF"/>
</linearGradient>
<linearGradient id="paint3_linear_2021_565" x1="11.84" y1="16.2757" x2="21.3782" y2="8.02508" gradientUnits="userSpaceOnUse">
<stop stop-color="#93227C"/>
<stop offset="1" stop-color="#F358AF"/>
</linearGradient>
<linearGradient id="paint4_linear_2021_565" x1="11.3533" y1="12.1676" x2="21.9429" y2="12.1676" gradientUnits="userSpaceOnUse">
<stop stop-color="#1E002B"/>
<stop offset="0.29" stop-color="#631C56"/>
<stop offset="0.63" stop-color="#B03C85"/>
<stop offset="0.88" stop-color="#E050A3"/>
<stop offset="1" stop-color="#F358AF"/>
</linearGradient>
<linearGradient id="paint5_linear_2021_565" x1="11.9554" y1="9.01082" x2="17.9838" y2="3.79624" gradientUnits="userSpaceOnUse">
<stop stop-color="#FF86BA"/>
<stop offset="0.99" stop-color="#FFE0EB"/>
</linearGradient>
<linearGradient id="paint6_linear_2021_565" x1="7.96932" y1="11.5277" x2="11.5027" y2="8.47127" gradientUnits="userSpaceOnUse">
<stop stop-color="#780071"/>
<stop offset="1" stop-color="#B2138D"/>
</linearGradient>
<linearGradient id="paint7_linear_2021_565" x1="9.42871" y1="9.42794" x2="15.2323" y2="9.42794" gradientUnits="userSpaceOnUse">
<stop stop-color="#1E002B"/>
<stop offset="0.29" stop-color="#631C56"/>
<stop offset="0.63" stop-color="#B03C85"/>
<stop offset="0.88" stop-color="#E050A3"/>
<stop offset="1" stop-color="#F358AF"/>
</linearGradient>
<linearGradient id="paint8_linear_2021_565" x1="4.80582" y1="7.84211" x2="14.3441" y2="-0.408518" gradientUnits="userSpaceOnUse">
<stop stop-color="#93227C"/>
<stop offset="1" stop-color="#F358AF"/>
</linearGradient>
<linearGradient id="paint9_linear_2021_565" x1="4.31911" y1="3.73403" x2="14.9087" y2="3.73403" gradientUnits="userSpaceOnUse">
<stop stop-color="#1E002B"/>
<stop offset="0.29" stop-color="#631C56"/>
<stop offset="0.63" stop-color="#B03C85"/>
<stop offset="0.88" stop-color="#E050A3"/>
<stop offset="1" stop-color="#F358AF"/>
</linearGradient>
<linearGradient id="paint10_linear_2021_565" x1="7.73767" y1="23.0811" x2="13.7661" y2="17.8665" gradientUnits="userSpaceOnUse">
<stop stop-color="#FF86BA"/>
<stop offset="0.99" stop-color="#FFE0EB"/>
</linearGradient>
<linearGradient id="paint11_linear_2021_565" x1="3.75447" y1="25.5941" x2="7.28788" y2="22.5377" gradientUnits="userSpaceOnUse">
<stop stop-color="#780071"/>
<stop offset="1" stop-color="#B2138D"/>
</linearGradient>
<linearGradient id="paint12_linear_2021_565" x1="5.21387" y1="23.4943" x2="11.0174" y2="23.4943" gradientUnits="userSpaceOnUse">
<stop stop-color="#1E002B"/>
<stop offset="0.29" stop-color="#631C56"/>
<stop offset="0.63" stop-color="#B03C85"/>
<stop offset="0.88" stop-color="#E050A3"/>
<stop offset="1" stop-color="#F358AF"/>
</linearGradient>
<linearGradient id="paint13_linear_2021_565" x1="0.590972" y1="21.9124" x2="10.1292" y2="13.6618" gradientUnits="userSpaceOnUse">
<stop stop-color="#93227C"/>
<stop offset="1" stop-color="#F358AF"/>
</linearGradient>
<linearGradient id="paint14_linear_2021_565" x1="0.104262" y1="17.8043" x2="10.6939" y2="17.8043" gradientUnits="userSpaceOnUse">
<stop stop-color="#1E002B"/>
<stop offset="0.29" stop-color="#631C56"/>
<stop offset="0.63" stop-color="#B03C85"/>
<stop offset="0.88" stop-color="#E050A3"/>
<stop offset="1" stop-color="#F358AF"/>
</linearGradient>
</defs>
</svg>
