<svg width="140" height="49" viewBox="0 0 140 49" fill="none" xmlns="http://www.w3.org/2000/svg">
<g id="Group 2141">
<g id="Group">
<path id="Vector" d="M139.979 42.1692C139.979 45.8074 137.212 48.7619 133.795 48.7619H6.19105C2.77451 48.7619 0 45.8074 0 42.1692V6.59275C0 2.95453 2.77451 0 6.19105 0H133.795C137.212 0 139.979 2.95453 139.979 6.59275V42.1692Z" fill="#E80274"/>
<g id="Group_2">
<path id="Vector_2" d="M36.5043 32.2313C35.7629 33.9812 35.4113 34.7626 34.4559 36.309C33.1259 38.4659 31.2457 41.1519 28.9221 41.1763C26.8584 41.2007 26.3234 39.7438 23.5183 39.7601C20.7132 39.7763 20.1324 41.2007 18.061 41.1844C15.7375 41.16 13.9566 38.7345 12.6267 36.5776C8.90438 30.5465 8.51457 23.4572 10.8076 19.6969C12.4432 17.0191 15.0114 15.4564 17.4343 15.4564C19.8954 15.4564 21.447 16.897 23.4878 16.897C25.4674 16.897 26.6674 15.4564 29.5183 15.4564C31.6737 15.4564 33.9514 16.7017 35.5794 18.8667C30.2521 21.9596 31.1234 30.0663 36.5043 32.2313Z" fill="white"/>
<g id="Group_3">
<path id="Vector_3" d="M27.3629 13.0391C28.3947 11.6229 29.182 9.62877 28.8992 7.58582C27.21 7.7079 25.2304 8.85554 24.0763 10.345C23.0291 11.7043 22.1654 13.7147 22.5017 15.6681C24.3438 15.7251 26.2469 14.553 27.3629 13.0391Z" fill="white"/>
</g>
</g>
<g id="Group_4">
<g id="Group_5">
<path id="Vector_4" d="M47.8469 19.5995L42.5119 36.3174H44.9577L46.5475 31.1816H51.7144L53.35 36.3174H55.857L50.4991 19.5995H47.8469ZM49.108 22.3505C49.2915 23.0993 49.4825 23.8726 49.7348 24.7109L51.1717 29.1468H47.0826L48.4966 24.6865C48.7106 23.954 48.9169 23.1726 49.108 22.3505Z" fill="white"/>
<path id="Vector_5" d="M62.7589 23.9294C61.1385 23.9294 59.8468 24.5969 58.9831 25.8584L58.8914 24.198H56.7131L56.7284 24.4097C56.7895 25.4433 56.8201 26.5828 56.8201 28.2188V41.103H59.1971V35.0882C59.9309 36.0242 61.108 36.5777 62.4455 36.5777C63.8366 36.5777 65.113 35.9998 66.0455 34.9498C67.085 33.7778 67.6353 32.093 67.6353 30.0826C67.6353 28.3083 67.1614 26.77 66.2519 25.6387C65.3576 24.5399 64.1194 23.9294 62.7589 23.9294ZM62.1627 26.0293C64.2799 26.0293 65.2277 28.1211 65.2277 30.1884C65.2277 32.8581 64.02 34.5185 62.071 34.5185C60.7411 34.5185 59.5946 33.558 59.2736 32.1744C59.2201 31.9628 59.1895 31.6779 59.1895 31.3523V29.3176C59.1895 29.1304 59.2277 28.9106 59.2659 28.6908C59.2812 28.6176 59.2889 28.5525 59.2965 28.4874C59.6557 27.0386 60.8328 26.0293 62.1627 26.0293Z" fill="white"/>
<path id="Vector_6" d="M74.9881 23.9294C73.3678 23.9294 72.0761 24.5969 71.2124 25.8584L71.1207 24.198H68.9423L68.9576 24.4097C69.0188 25.4433 69.0493 26.5828 69.0493 28.2188V41.103H71.4264V35.0882C72.1601 36.0242 73.3372 36.5777 74.6748 36.5777C76.0658 36.5777 77.3423 35.9998 78.2747 34.9498C79.3142 33.7778 79.8645 32.093 79.8645 30.0826C79.8645 28.3083 79.3907 26.77 78.4811 25.6387C77.5945 24.5399 76.3486 23.9294 74.9881 23.9294ZM74.392 26.0293C76.5092 26.0293 77.4569 28.1211 77.4569 30.1884C77.4569 32.8581 76.2493 34.5185 74.3002 34.5185C72.9703 34.5185 71.8238 33.558 71.5028 32.1744C71.4493 31.9628 71.4187 31.6779 71.4187 31.3523V29.3176C71.4187 29.1304 71.457 28.9106 71.4952 28.6908C71.5105 28.6257 71.5181 28.5525 71.5257 28.4874C71.885 27.0386 73.062 26.0293 74.392 26.0293Z" fill="white"/>
<path id="Vector_7" d="M90.3053 26.6805C88.0887 25.7689 87.3779 25.0446 87.3779 23.7179C87.3779 22.6028 88.211 21.4715 90.076 21.4715C91.6123 21.4715 92.5982 22.0412 92.8658 22.2203L93.0645 22.3505L93.7371 20.2425L93.6072 20.1611C93.2097 19.9088 92.0785 19.3309 90.1524 19.3309C87.1256 19.3309 85.0085 21.2354 85.0085 23.962C85.0085 26.1596 86.3307 27.6979 89.174 28.7967C91.1919 29.6025 91.9409 30.4245 91.9409 31.8326C91.9409 33.4279 90.7868 34.4127 88.9218 34.4127C87.7065 34.4127 86.4607 34.0383 85.4976 33.379L85.2913 33.2407L84.6569 35.3976L84.7715 35.4789C85.6658 36.1138 87.355 36.5777 88.7842 36.5777C92.8658 36.5777 94.3103 33.9244 94.3103 31.6617C94.3103 29.3176 93.1486 27.877 90.3053 26.6805Z" fill="white"/>
<path id="Vector_8" d="M98.5906 21.3168L96.2594 22.0981V24.198H94.5549V26.2165H96.2594V32.4104C96.2594 33.908 96.5269 34.958 97.0848 35.6173C97.6122 36.2358 98.43 36.5777 99.3854 36.5777C100.28 36.5777 100.922 36.3905 101.22 36.2765L101.35 36.2277L101.235 34.2011L101.006 34.2743C100.708 34.372 100.394 34.4127 99.8975 34.4127C98.9804 34.4127 98.5829 33.7941 98.5829 32.3372V26.2165H101.449V24.198H98.5829V21.3168H98.5906Z" fill="white"/>
<path id="Vector_9" d="M107.334 23.9294C104.01 23.9294 101.694 26.5747 101.694 30.3512C101.694 34.0219 103.941 36.5776 107.159 36.5776H107.182C109.903 36.5776 112.822 34.5591 112.822 30.1314C112.822 28.3327 112.303 26.7863 111.309 25.6549C110.315 24.5317 108.94 23.9294 107.334 23.9294ZM107.266 25.9317C109.406 25.9317 110.376 28.1536 110.376 30.2128C110.376 32.7441 109.047 34.5917 107.22 34.5917H107.197C105.393 34.5917 104.086 32.7848 104.086 30.2861C104.094 28.1129 105.072 25.9317 107.266 25.9317Z" fill="white"/>
<path id="Vector_10" d="M120.099 24.0515L119.954 24.0108C119.747 23.9539 119.571 23.9294 119.365 23.9294C118.119 23.9294 117.011 24.7108 116.384 25.9642L116.315 24.198H114.183L114.198 24.4097C114.259 25.4108 114.29 26.534 114.29 28.0478L114.267 36.3091H116.644V29.871C116.644 29.521 116.667 29.1873 116.713 28.8943C116.98 27.3479 117.959 26.3468 119.212 26.3468C119.457 26.3468 119.648 26.3712 119.847 26.3875L120.099 26.4119V24.0515Z" fill="white"/>
<path id="Vector_11" d="M125.434 23.9051C122.269 23.9051 120.061 26.5991 120.061 30.4488C120.061 34.1602 122.254 36.5531 125.655 36.5531C127.444 36.5531 128.69 36.138 129.416 35.788L129.561 35.7229L129.103 33.8347L128.904 33.9161C128.254 34.1928 127.398 34.4858 125.931 34.4858C124.899 34.4858 122.522 34.1195 122.376 30.8151L130.043 30.8395L130.073 30.6767C130.119 30.4163 130.142 30.0745 130.142 29.6187C130.15 26.9898 128.911 23.9051 125.434 23.9051ZM125.273 25.834C125.999 25.834 126.58 26.0701 127.016 26.5421C127.696 27.2828 127.818 28.3734 127.834 28.8943H122.415C122.644 27.4374 123.5 25.834 125.273 25.834Z" fill="white"/>
</g>
<g id="Group_6">
<path id="Vector_12" d="M42.5119 8.18017C43.1768 8.08251 43.9488 8.0174 44.7896 8.0174C46.3182 8.0174 47.4112 8.34295 48.1297 8.99407C48.8787 9.63706 49.3068 10.5649 49.3068 11.8427C49.3068 13.1368 48.8787 14.1868 48.122 14.9193C47.3348 15.6599 46.066 16.0587 44.4609 16.0587C43.6889 16.0587 43.0622 16.0343 42.5119 15.9611V8.18017ZM43.5896 15.1879C43.8571 15.2367 44.2545 15.2367 44.6673 15.2367C46.945 15.2448 48.1832 14.0158 48.1832 11.8834C48.1985 9.99517 47.0902 8.83129 44.8431 8.83129C44.2928 8.83129 43.8724 8.88013 43.5972 8.9371V15.1879H43.5896Z" fill="white"/>
<path id="Vector_13" d="M53.1284 16.1161C51.5386 16.1161 50.2851 14.9929 50.2851 13.1942C50.2851 11.2896 51.5921 10.1746 53.2277 10.1746C54.9322 10.1746 56.0787 11.3629 56.0787 13.0884C56.0787 15.2045 54.55 16.1161 53.1437 16.1161H53.1284ZM53.1666 15.3429C54.1984 15.3429 54.9704 14.415 54.9704 13.1209C54.9704 12.1605 54.4659 10.9478 53.1972 10.9478C51.936 10.9478 51.3857 12.071 51.3857 13.1535C51.3857 14.3988 52.1195 15.3348 53.1589 15.3348H53.1666V15.3429Z" fill="white"/>
<path id="Vector_14" d="M57.7831 10.3049L58.578 13.1781C58.7386 13.813 58.8991 14.4072 59.0061 15.0014H59.0443C59.1819 14.4235 59.3729 13.813 59.5717 13.1944L60.5424 10.3049H61.4519L62.3691 13.1456C62.5907 13.813 62.7589 14.4235 62.8965 15.0014H62.9347C63.0341 14.4235 63.1946 13.8293 63.3856 13.1619L64.234 10.3131H65.2965L63.3856 15.9944H62.4073L61.4978 13.284C61.2914 12.6409 61.1156 12.0712 60.9704 11.4038H60.9475C60.8022 12.0875 60.6188 12.6816 60.4048 13.2921L59.4494 15.9944H58.471L56.6825 10.3131H57.7831V10.3049Z" fill="white"/>
<path id="Vector_15" d="M66.3742 11.843C66.3742 11.2407 66.3589 10.7768 66.3284 10.3048H67.2838L67.3449 11.2326H67.3678C67.6583 10.7036 68.3462 10.1746 69.3245 10.1746C70.1423 10.1746 71.4188 10.6466 71.4188 12.5918V15.9857H70.3411V12.7139C70.3411 11.8023 69.9818 11.021 68.9653 11.021C68.2697 11.021 67.7194 11.5012 67.5207 12.079C67.4748 12.2093 67.4443 12.3965 67.4443 12.5592V15.9857H66.3666V11.843H66.3742Z" fill="white"/>
<path id="Vector_16" d="M73.169 7.65143H74.2467V15.9857H73.169V7.65143Z" fill="white"/>
<path id="Vector_17" d="M78.4505 16.1161C76.8607 16.1161 75.6072 14.9929 75.6072 13.1942C75.6072 11.2896 76.9142 10.1746 78.5499 10.1746C80.2543 10.1746 81.4008 11.3629 81.4008 13.0884C81.4008 15.2045 79.8722 16.1161 78.4582 16.1161H78.4505ZM78.4811 15.3429C79.5129 15.3429 80.2849 14.415 80.2849 13.1209C80.2849 12.1605 79.7804 10.9478 78.5117 10.9478C77.2505 10.9478 76.7002 12.071 76.7002 13.1535C76.7002 14.3988 77.434 15.3348 78.4734 15.3348H78.4811V15.3429Z" fill="white"/>
<path id="Vector_18" d="M86.9345 14.6266C86.9345 15.1231 86.9575 15.6033 87.0186 15.9858H86.0479L85.9486 15.2696H85.9104C85.5893 15.7172 84.9397 16.116 84.0989 16.116C82.8989 16.116 82.2875 15.3103 82.2875 14.4883C82.2875 13.1128 83.5639 12.364 85.8492 12.3722V12.2582C85.8492 11.7862 85.7116 10.9316 84.504 10.9479C83.9384 10.9479 83.3652 11.1025 82.9524 11.3711L82.7078 10.6793C83.197 10.3863 83.9231 10.1828 84.6645 10.1828C86.4912 10.1828 86.9269 11.3711 86.9269 12.5105V14.6266H86.9345ZM85.8798 13.0884C84.7027 13.064 83.3652 13.2674 83.3652 14.3662C83.3652 15.0499 83.8314 15.351 84.3664 15.351C85.1537 15.351 85.6505 14.8789 85.8263 14.3987C85.8645 14.2929 85.8721 14.179 85.8721 14.0732V13.0884H85.8798Z" fill="white"/>
<path id="Vector_19" d="M93.7829 7.65143V14.5209C93.7829 15.0255 93.7982 15.6034 93.8288 15.9859H92.8581L92.8122 15.0011H92.7893C92.4607 15.636 91.7498 16.1162 90.7791 16.1162C89.3422 16.1162 88.2339 14.9523 88.2339 13.2268C88.2186 11.3222 89.4568 10.1746 90.8938 10.1746C91.811 10.1746 92.4224 10.5897 92.6823 11.0292H92.7052V7.65143H93.7829ZM92.7052 12.6163C92.7052 12.478 92.69 12.307 92.6594 12.1687C92.4989 11.5257 91.9103 10.9803 91.1078 10.9803C89.9919 10.9803 89.3345 11.9164 89.3345 13.1616C89.3345 14.3255 89.9384 15.2778 91.0849 15.2778C91.811 15.2778 92.4683 14.8058 92.667 14.0488C92.7052 13.9104 92.7129 13.7639 92.7129 13.6012V12.6163H92.7052Z" fill="white"/>
<path id="Vector_20" d="M100.578 16.1161C98.988 16.1161 97.7345 14.9929 97.7345 13.1942C97.7345 11.2896 99.0492 10.1746 100.677 10.1746C102.382 10.1746 103.528 11.3629 103.528 13.0884C103.528 15.2045 101.999 16.1161 100.593 16.1161H100.578ZM100.616 15.3429C101.648 15.3429 102.42 14.415 102.42 13.1209C102.42 12.1605 101.915 10.9478 100.647 10.9478C99.3855 10.9478 98.8351 12.071 98.8351 13.1535C98.8351 14.3988 99.5689 15.3348 100.608 15.3348H100.616V15.3429Z" fill="white"/>
<path id="Vector_21" d="M104.896 11.843C104.896 11.2407 104.881 10.7768 104.85 10.3048H105.806L105.867 11.2326H105.89C106.18 10.7036 106.868 10.1746 107.847 10.1746C108.664 10.1746 109.941 10.6466 109.941 12.5918V15.9857H108.863V12.7139C108.863 11.8023 108.512 11.021 107.495 11.021C106.799 11.021 106.249 11.5012 106.05 12.079C106.005 12.2093 105.974 12.3965 105.974 12.5592V15.9857H104.896V11.843Z" fill="white"/>
<path id="Vector_22" d="M115.582 8.9458V10.305H117.125V11.0945H115.582V14.1548C115.582 14.8548 115.788 15.2618 116.392 15.2618C116.682 15.2618 116.858 15.2373 117.018 15.1885L117.064 15.978C116.858 16.0513 116.529 16.1164 116.109 16.1164C115.604 16.1164 115.199 15.9536 114.947 15.685C114.657 15.3676 114.534 14.8629 114.534 14.1955V11.0945H113.617V10.305H114.534V9.26323L115.582 8.9458Z" fill="white"/>
<path id="Vector_23" d="M118.341 7.65143H119.418V11.2002H119.441C119.61 10.9072 119.885 10.6386 120.213 10.4758C120.534 10.2886 120.909 10.1828 121.314 10.1828C122.109 10.1828 123.385 10.6549 123.385 12.6165V15.9943H122.308V12.7304C122.308 11.8025 121.956 11.0374 120.939 11.0374C120.244 11.0374 119.701 11.5095 119.495 12.0711C119.434 12.2095 119.418 12.3642 119.418 12.5676V15.9943H118.341V7.65143Z" fill="white"/>
<path id="Vector_24" d="M125.747 13.3246C125.77 14.7246 126.687 15.2944 127.765 15.2944C128.537 15.2944 129.011 15.1641 129.408 15.0095L129.607 15.7339C129.225 15.8967 128.567 16.1002 127.62 16.1002C125.808 16.1002 124.708 14.9362 124.708 13.2351C124.708 11.5096 125.77 10.1584 127.497 10.1584C129.431 10.1584 129.936 11.7863 129.936 12.8363C129.936 13.0479 129.92 13.2107 129.897 13.3328L125.747 13.3246ZM128.896 12.584C128.911 11.941 128.613 10.9073 127.413 10.9073C126.313 10.9073 125.846 11.8677 125.762 12.584H128.896Z" fill="white"/>
</g>
</g>
</g>
</g>
</svg>
