<svg width="141" height="49" viewBox="0 0 141 49" fill="none" xmlns="http://www.w3.org/2000/svg">
<g id="Group 2140">
<path id="Vector" d="M140.445 42.3077C140.445 45.9622 137.663 48.9168 134.239 48.9168H6.20634C2.77451 48.9168 0 45.9541 0 42.3077V6.60906C0 2.95454 2.78215 0 6.20634 0H134.239C137.671 0 140.445 2.96268 140.445 6.60906V42.3077Z" fill="#E80274"/>
<g id="PLAY_2_">
<path id="Vector_2" d="M10.5324 9.41742V25.9806V42.5437L26.2241 25.9806L10.5324 9.41742Z" fill="url(#paint0_linear_1_788)"/>
<path id="Vector_3" d="M30.4355 21.5366L24.1069 17.6379L10.5324 9.29535V9.41744L26.2241 25.9805L30.4355 21.5366Z" fill="url(#paint1_linear_1_788)"/>
<path id="Vector_4" d="M10.5324 42.5437V42.6658L24.1069 34.3231L30.4355 30.4326L26.2241 25.9805L10.5324 42.5437Z" fill="url(#paint2_linear_1_788)"/>
<path id="Vector_5" d="M30.4355 21.5366L26.2241 25.9806L30.4355 30.4327L37.6737 25.9806L30.4355 21.5366Z" fill="url(#paint3_linear_1_788)"/>
</g>
<g id="Group">
<path id="Vector_6" d="M109.299 32.4585C108.71 32.4585 108.175 32.3446 107.686 32.1086C107.197 31.8807 106.792 31.5225 106.463 31.0423H106.364C106.433 31.6039 106.463 32.1411 106.463 32.6457V36.6095H105.095V22.6508H106.211L106.402 23.9694H106.471C106.822 23.4403 107.235 23.0578 107.701 22.8299C108.168 22.5939 108.703 22.4799 109.314 22.4799C110.514 22.4799 111.439 22.9194 112.089 23.7903C112.738 24.6612 113.067 25.8902 113.067 27.4611C113.067 29.0401 112.738 30.2691 112.073 31.1481C111.401 32.019 110.476 32.4585 109.299 32.4585ZM109.1 23.7089C108.175 23.7089 107.51 23.9857 107.097 24.5229C106.685 25.0682 106.471 25.9391 106.463 27.1274V27.453C106.463 28.8041 106.677 29.7726 107.097 30.3586C107.518 30.9447 108.198 31.2295 109.138 31.2295C109.918 31.2295 110.529 30.8958 110.973 30.2203C111.416 29.5447 111.638 28.6169 111.638 27.4367C111.638 26.2321 111.416 25.3124 110.973 24.6694C110.529 24.0345 109.903 23.7089 109.1 23.7089Z" fill="#F9F9F9"/>
<path id="Vector_7" d="M116.231 32.2796H114.863V18.5977H116.231V32.2796Z" fill="#F9F9F9"/>
<path id="Vector_8" d="M124.111 32.2793L123.836 30.9037H123.767C123.316 31.506 122.866 31.913 122.415 32.1328C121.964 32.3444 121.406 32.4502 120.733 32.4502C119.839 32.4502 119.136 32.206 118.623 31.7095C118.111 31.2212 117.859 30.5212 117.859 29.6096C117.859 27.6643 119.319 26.6469 122.239 26.5492L123.775 26.5004V25.9062C123.775 25.1493 123.622 24.5877 123.316 24.2295C123.011 23.8714 122.522 23.6923 121.849 23.6923C121.092 23.6923 120.244 23.9365 119.288 24.433L118.868 23.3179C119.311 23.0575 119.801 22.854 120.336 22.7075C120.863 22.561 121.398 22.4877 121.933 22.4877C123.011 22.4877 123.813 22.7401 124.333 23.2528C124.853 23.7656 125.113 24.5795 125.113 25.7027V32.2793H124.111ZM121.016 31.2537C121.872 31.2537 122.537 31.0014 123.026 30.5049C123.515 30.0084 123.76 29.3084 123.76 28.4131V27.5422L122.392 27.6073C121.299 27.648 120.519 27.8271 120.037 28.1527C119.556 28.4701 119.319 28.9666 119.319 29.6421C119.319 30.1712 119.472 30.57 119.77 30.8468C120.053 31.1153 120.473 31.2537 121.016 31.2537Z" fill="#F9F9F9"/>
<path id="Vector_9" d="M125.915 22.6429H127.383L129.362 28.1368C129.798 29.3902 130.065 30.2937 130.172 30.8553H130.241C130.31 30.5541 130.463 30.0414 130.692 29.317C130.922 28.5926 131.671 26.3706 132.932 22.6429H134.399L130.509 33.6144C130.127 34.6969 129.676 35.4702 129.156 35.9259C128.644 36.3817 128.009 36.6096 127.26 36.6096C126.84 36.6096 126.427 36.5608 126.022 36.4631V35.2911C126.328 35.3643 126.664 35.3969 127.039 35.3969C127.979 35.3969 128.651 34.8353 129.057 33.7121L129.561 32.3447L125.915 22.6429Z" fill="#F9F9F9"/>
</g>
<g id="Group_2">
<path id="Vector_10" d="M83.9155 23.5378C84.3512 23.9204 85.2607 24.7262 85.2607 26.2563C85.2607 27.7458 84.4658 28.4539 83.6709 29.1214C83.4263 29.3818 83.1435 29.6667 83.1435 30.1062C83.1435 30.5457 83.4263 30.7899 83.6327 30.969L84.313 31.5306C85.1461 32.2794 85.9028 32.9631 85.9028 34.3549C85.9028 36.2514 84.183 38.1641 80.927 38.1641C78.1831 38.1641 76.8608 36.7723 76.8608 35.2828C76.8608 34.5584 77.1971 33.5328 78.3206 32.8247C79.4901 32.0596 81.0875 31.962 81.9359 31.8969C81.6684 31.5306 81.3703 31.148 81.3703 30.5295C81.3703 30.1876 81.462 29.9841 81.5614 29.7399C81.355 29.7644 81.141 29.7806 80.9576 29.7806C78.955 29.7806 77.8162 28.1854 77.8162 26.6145C77.8162 25.6866 78.2136 24.6611 79.0238 23.9122C80.1015 22.9681 81.3932 22.8053 82.4098 22.8053H86.3078L85.1002 23.5297H83.9155V23.5378ZM82.5703 32.491C82.4174 32.4666 82.3257 32.4666 82.1346 32.4666C81.9665 32.4666 80.9423 32.5073 80.1474 32.7922C79.7346 32.955 78.5194 33.4352 78.5194 34.8677C78.5194 36.3002 79.8264 37.3257 81.8518 37.3257C83.6709 37.3257 84.634 36.3979 84.634 35.1444C84.634 34.1189 84.0072 33.5817 82.5703 32.491ZM83.1206 28.6574C83.5563 28.1935 83.5945 27.5505 83.5945 27.1842C83.5945 25.7354 82.7843 23.4727 81.2098 23.4727C80.7206 23.4727 80.1856 23.7332 79.8875 24.1401C79.5665 24.5634 79.4671 25.1087 79.4671 25.6296C79.4671 26.9807 80.2085 29.219 81.8365 29.219C82.3104 29.2272 82.8149 28.983 83.1206 28.6574Z" fill="#F9F9F9"/>
<path id="Vector_11" d="M71.9996 32.1662C68.9959 32.1662 67.3908 29.6674 67.3908 27.4209C67.3908 24.7838 69.4086 22.5292 72.2824 22.5292C75.0569 22.5292 76.7996 24.8408 76.7996 27.2744C76.7996 29.6511 75.0799 32.1662 71.9996 32.1662ZM74.3614 30.5383C74.8124 29.8953 74.927 29.0895 74.927 28.3081C74.927 26.5338 74.1321 23.156 71.7933 23.156C71.1665 23.156 70.5474 23.4164 70.0965 23.8397C69.3627 24.5396 69.2252 25.4268 69.2252 26.2977C69.2252 28.2919 70.15 31.5639 72.4353 31.5639C73.1767 31.5639 73.9257 31.1813 74.3614 30.5383Z" fill="#F9F9F9"/>
<path id="Vector_12" d="M61.7576 32.1662C58.7539 32.1662 57.1488 29.6674 57.1488 27.4209C57.1488 24.7838 59.1742 22.5292 62.0404 22.5292C64.8149 22.5292 66.5576 24.8408 66.5576 27.2744C66.5576 29.6511 64.8379 32.1662 61.7576 32.1662ZM64.1194 30.5383C64.5703 29.8953 64.685 29.0895 64.685 28.3081C64.685 26.5338 63.8901 23.156 61.5513 23.156C60.9322 23.156 60.3054 23.4164 59.8545 23.8397C59.1207 24.5396 58.9831 25.4268 58.9831 26.2977C58.9831 28.2919 59.908 31.5639 62.1933 31.5639C62.9347 31.5639 63.6914 31.1813 64.1194 30.5383Z" fill="#F9F9F9"/>
<path id="Vector_13" d="M55.7041 31.8486L52.9908 32.516C51.8902 32.695 50.9042 32.8578 49.8571 32.8578C44.6138 32.8578 42.6189 28.7475 42.6189 25.5325C42.6189 21.6094 45.4469 17.9711 50.2927 17.9711C51.3169 17.9711 52.3029 18.1339 53.1972 18.3944C54.6188 18.8176 55.2838 19.3467 55.7041 19.6478L54.1296 21.2431L53.4647 21.4059L53.9386 20.6001C53.2965 19.9327 52.1118 18.6955 49.8723 18.6955C46.8685 18.6955 44.6138 21.121 44.6138 24.6616C44.6138 28.4626 47.1972 32.0439 51.3398 32.0439C52.5551 32.0439 53.1819 31.7834 53.7551 31.5393V28.2836L50.8889 28.4463L52.4099 27.5754H56.4379L55.9411 28.0801C55.8035 28.2022 55.7882 28.2429 55.75 28.4056C55.7271 28.5847 55.7118 29.1789 55.7118 29.3742V31.8486H55.7041Z" fill="#F9F9F9"/>
<path id="Vector_14" d="M89.9155 31.2707C89.2887 31.2137 89.1588 31.0916 89.1588 30.3021V30.0823V18.8584C89.1588 18.8177 89.1665 18.7688 89.1665 18.7281C89.2429 18.02 89.434 17.8979 90.0225 17.5317H87.3015L85.8798 18.2561H87.3321V18.2642V18.2561V30.0742V30.7416C87.3321 31.1486 87.2556 31.2055 86.8199 31.816H90.183L90.8862 31.3683C90.5652 31.3276 90.2442 31.3114 89.9155 31.2707Z" fill="#F9F9F9"/>
<path id="Vector_15" d="M97.6505 31.458C97.4441 31.5801 97.2377 31.7185 97.0314 31.8161C96.4046 32.1173 95.7702 32.1987 95.197 32.1987C94.5932 32.1987 93.653 32.158 92.69 31.4173C91.3524 30.4162 90.7639 28.6825 90.7639 27.1768C90.7639 24.0595 93.1409 22.5375 95.0823 22.5375C95.7626 22.5375 96.4581 22.7165 97.0237 23.0991C97.9639 23.7584 98.2084 24.6211 98.346 25.085L93.9129 26.9977L92.4607 27.1198C92.9346 29.6674 94.5549 31.1569 96.3435 31.1569C97.3065 31.1569 98.0021 30.7987 98.6441 30.4569L97.6505 31.458ZM95.8772 25.4676C96.2365 25.3292 96.4199 25.2071 96.4199 24.9223C96.4199 24.1165 95.5715 23.1967 94.5549 23.1967C93.7983 23.1967 92.3842 23.8235 92.3842 25.9885C92.3842 26.3303 92.4225 26.6885 92.4454 27.0547L95.8772 25.4676Z" fill="#F9F9F9"/>
<g id="Group_3">
<path id="Vector_16" d="M99.4696 22.6761V24.0034H99.3167V22.6761H98.9039V22.5377H99.8823V22.6761H99.4696Z" fill="#F9F9F9"/>
<path id="Vector_17" d="M101.166 24.0034V22.668H101.159L100.777 24.0034H100.662L100.272 22.668H100.264V24.0034H100.127V22.5377H100.364L100.715 23.7184H100.723L101.067 22.5377H101.304V24.0034H101.166Z" fill="#F9F9F9"/>
</g>
</g>
<g id="Group_4">
<path id="Vector_18" d="M46.3946 14.0402H45.4545C45.4545 13.9018 45.3628 13.5111 45.187 12.8681H43.8265C43.643 13.503 43.5513 13.8937 43.5513 14.0402H42.6494C42.6494 13.9588 42.8787 13.2914 43.3373 12.0298C43.7959 10.7682 44.0252 10.0764 44.0252 9.95428H45.1411C45.1411 10.0764 45.3475 10.7601 45.7679 12.0054C46.1806 13.2425 46.3946 13.9262 46.3946 14.0402ZM45.0265 12.2658C44.6902 11.1833 44.522 10.5973 44.522 10.5159H44.4762C44.4762 10.5973 44.3004 11.1833 43.9564 12.2658H45.0265Z" fill="#F9F9FA"/>
<path id="Vector_19" d="M50.1934 14.04H49.4672C49.4672 13.9505 49.1997 13.5028 48.657 12.6808C48.0914 11.818 47.7704 11.2238 47.6863 10.9064H47.6405C47.6863 11.3622 47.7169 11.7773 47.7169 12.1517C47.7169 12.6726 47.7322 13.2993 47.7551 14.04H47.029C47.0596 13.3889 47.0749 12.6808 47.0749 11.8994C47.0749 11.1343 47.0596 10.4832 47.029 9.94598H47.908C47.908 10.0599 48.1526 10.4995 48.6341 11.2727C49.1539 12.0947 49.452 12.6563 49.5284 12.9494H49.5742C49.5284 12.4854 49.5055 12.0622 49.5055 11.6959C49.5055 11.1262 49.4902 10.5483 49.4672 9.94598H50.201C50.1704 10.4669 50.1628 11.118 50.1628 11.8994C50.1551 12.6889 50.1704 13.397 50.1934 14.04Z" fill="#F9F9FA"/>
<path id="Vector_20" d="M54.4736 11.8507C54.4736 12.4449 54.2978 12.9658 53.9386 13.4053C53.5793 13.853 53.0825 14.0727 52.4328 14.0727C52.1424 14.0727 51.7373 14.0564 51.2328 14.032C51.2557 13.3972 51.271 12.689 51.271 11.8914C51.271 11.1263 51.2557 10.4752 51.2328 9.93797H51.7526C51.8366 9.93797 51.9666 9.93797 52.1271 9.92983C52.2952 9.92169 52.4023 9.92169 52.4558 9.92169C53.1666 9.92169 53.6787 10.1089 53.9997 10.4833C54.3131 10.874 54.4736 11.3216 54.4736 11.8507ZM53.6634 11.9891C53.6634 11.5902 53.5564 11.2484 53.3347 10.9717C53.1131 10.6949 52.7768 10.5566 52.3258 10.5566C52.2417 10.5566 52.1271 10.5647 51.9742 10.581C51.9972 10.9961 52.0048 11.4356 52.0048 11.8914C52.0048 12.396 52.0124 12.8844 52.0354 13.3809C52.1653 13.4053 52.2876 13.4216 52.4175 13.4216C52.8379 13.4216 53.1513 13.2832 53.3577 12.9983C53.564 12.7297 53.6634 12.3879 53.6634 11.9891Z" fill="#F9F9FA"/>
<path id="Vector_21" d="M58.4099 14.0401H57.5385C57.3092 13.2995 57.1334 12.8437 57.0111 12.6646C56.8888 12.4937 56.6901 12.4042 56.4226 12.4042C56.3079 12.4042 56.2009 12.4042 56.0939 12.4042C56.0939 12.9414 56.1016 13.4867 56.1169 14.032H55.299C55.3219 13.3972 55.3372 12.689 55.3372 11.8914C55.3372 11.1263 55.3219 10.4752 55.299 9.93797H55.8111C55.8723 9.93797 55.9946 9.93797 56.178 9.92983C56.3691 9.92169 56.5372 9.92169 56.6978 9.92169C57.5997 9.92169 58.0506 10.2473 58.0506 10.9065C58.0506 11.4275 57.7908 11.7937 57.2787 11.9972V12.046C57.4774 12.103 57.6532 12.2658 57.7984 12.5425C57.9589 12.8193 58.1576 13.3158 58.4099 14.0401ZM57.3092 11.1507C57.3092 10.7356 57.057 10.524 56.5525 10.524C56.3691 10.524 56.2009 10.5403 56.0634 10.5647C56.0863 10.8903 56.0939 11.3135 56.0939 11.8344C56.2009 11.8426 56.2927 11.8426 56.3691 11.8426C56.9958 11.8426 57.3092 11.6147 57.3092 11.1507Z" fill="#F9F9FA"/>
<path id="Vector_22" d="M62.6442 11.916C62.6442 12.5589 62.4607 13.088 62.0862 13.5112C61.7193 13.9344 61.2607 14.1461 60.7181 14.1461C60.1984 14.1461 59.7627 13.9507 59.4111 13.56C59.0595 13.1694 58.8837 12.681 58.8837 12.0787C58.8837 11.4357 59.0672 10.9067 59.4417 10.4835C59.8085 10.0602 60.2671 9.84863 60.8098 9.84863C61.3295 9.84863 61.7652 10.044 62.1168 10.4265C62.4684 10.8253 62.6442 11.3137 62.6442 11.916ZM61.8263 12.0055C61.8263 11.566 61.7193 11.216 61.513 10.9393C61.299 10.6707 61.0467 10.5323 60.7334 10.5323C60.4429 10.5323 60.206 10.6707 59.9996 10.9474C59.8009 11.2241 59.7015 11.566 59.7015 11.9892C59.7015 12.4287 59.8085 12.7787 60.0149 13.0554C60.2289 13.3321 60.4888 13.4624 60.7945 13.4624C61.085 13.4624 61.3219 13.324 61.5283 13.0473C61.727 12.7706 61.8263 12.4287 61.8263 12.0055Z" fill="#F9F9FA"/>
<path id="Vector_23" d="M64.3105 14.04H63.4774C63.5003 13.3889 63.5156 12.6808 63.5156 11.8994C63.5156 11.1343 63.5003 10.4832 63.4774 9.94598H64.3105C64.2875 10.475 64.2723 11.1262 64.2723 11.8994C64.2723 12.6889 64.2799 13.397 64.3105 14.04Z" fill="#F9F9FA"/>
<path id="Vector_24" d="M68.5831 11.8507C68.5831 12.4449 68.4073 12.9658 68.048 13.4053C67.6888 13.853 67.192 14.0727 66.5423 14.0727C66.2519 14.0727 65.8468 14.0564 65.3423 14.032C65.3652 13.3972 65.3805 12.689 65.3805 11.8914C65.3805 11.1263 65.3652 10.4752 65.3423 9.93797H65.8621C65.9461 9.93797 66.0761 9.93797 66.2366 9.92983C66.4047 9.92169 66.5117 9.92169 66.5652 9.92169C67.2761 9.92169 67.7882 10.1089 68.1092 10.4833C68.4225 10.874 68.5831 11.3216 68.5831 11.8507ZM67.7805 11.9891C67.7805 11.5902 67.6735 11.2484 67.4519 10.9717C67.2302 10.6949 66.8939 10.5566 66.4429 10.5566C66.3589 10.5566 66.2442 10.5647 66.0914 10.581C66.1143 10.9961 66.1219 11.4356 66.1219 11.8914C66.1219 12.396 66.1296 12.8844 66.1525 13.3809C66.2824 13.4053 66.4047 13.4216 66.5347 13.4216C66.955 13.4216 67.2684 13.2832 67.4748 12.9983C67.6735 12.7297 67.7805 12.3879 67.7805 11.9891Z" fill="#F9F9FA"/>
<path id="Vector_25" d="M74.2544 14.0402H73.3142C73.3142 13.9018 73.2225 13.5111 73.0467 12.8681H71.6862C71.5028 13.503 71.4111 13.8937 71.4111 14.0402H70.5244C70.5244 13.9588 70.7537 13.2914 71.2123 12.0298C71.6709 10.7682 71.9002 10.0764 71.9002 9.95428H73.0162C73.0162 10.0764 73.2225 10.7601 73.6429 12.0054C74.048 13.2425 74.2544 13.9262 74.2544 14.0402ZM72.8939 12.2658C72.5576 11.1833 72.3894 10.5973 72.3894 10.5159H72.3435C72.3435 10.5973 72.1678 11.1833 71.8238 12.2658H72.8939Z" fill="#F9F9FA"/>
<path id="Vector_26" d="M77.6938 11.0205C77.6938 11.517 77.518 11.8914 77.1665 12.1274C76.8149 12.3635 76.3868 12.4855 75.8824 12.4855C75.7906 12.4855 75.7219 12.4855 75.6836 12.4774C75.6836 12.8681 75.6913 13.389 75.7142 14.032H74.8887C74.9117 13.4297 74.9269 12.7134 74.9269 11.8914C74.9269 11.1344 74.9117 10.4833 74.8887 9.93797H75.4008C75.4773 9.93797 75.6148 9.93797 75.8212 9.92983C76.0276 9.92169 76.2034 9.92169 76.3563 9.92169C76.7308 9.92169 77.0442 10.0112 77.304 10.1903C77.5639 10.3775 77.6938 10.6542 77.6938 11.0205ZM76.9372 11.1914C76.9372 10.7438 76.6543 10.5159 76.0964 10.5159C75.9588 10.5159 75.8059 10.5321 75.6531 10.5647C75.676 10.9635 75.6836 11.4112 75.6836 11.9077C75.7295 11.9158 75.7906 11.9158 75.8518 11.9158C76.5779 11.9158 76.9372 11.6716 76.9372 11.1914Z" fill="#F9F9FA"/>
<path id="Vector_27" d="M81.2327 11.0205C81.2327 11.517 81.0569 11.8914 80.713 12.1274C80.3614 12.3635 79.9333 12.4855 79.4289 12.4855C79.3372 12.4855 79.2684 12.4855 79.2302 12.4774C79.2302 12.8681 79.2378 13.389 79.2607 14.032H78.4352C78.4582 13.4297 78.4735 12.7134 78.4735 11.8914C78.4735 11.1344 78.4582 10.4833 78.4352 9.93797H78.9473C79.0238 9.93797 79.1614 9.93797 79.3677 9.92983C79.5741 9.92169 79.7499 9.92169 79.9028 9.92169C80.2773 9.92169 80.5907 10.0112 80.8505 10.1903C81.1028 10.3775 81.2327 10.6542 81.2327 11.0205ZM80.476 11.1914C80.476 10.7438 80.1932 10.5159 79.6352 10.5159C79.4977 10.5159 79.3448 10.5321 79.1919 10.5647C79.2149 10.9635 79.2225 11.4112 79.2225 11.9077C79.2684 11.9158 79.3295 11.9158 79.3907 11.9158C80.1168 11.9158 80.476 11.6716 80.476 11.1914Z" fill="#F9F9FA"/>
<path id="Vector_28" d="M87.0186 11.916C87.0186 12.5589 86.8352 13.088 86.4607 13.5112C86.0938 13.9344 85.6352 14.1461 85.0925 14.1461C84.5728 14.1461 84.1371 13.9507 83.7855 13.56C83.4339 13.1694 83.2581 12.681 83.2581 12.0787C83.2581 11.4357 83.4416 10.9067 83.8161 10.4835C84.183 10.0602 84.6416 9.84863 85.1842 9.84863C85.704 9.84863 86.1397 10.044 86.4913 10.4265C86.8428 10.8253 87.0186 11.3137 87.0186 11.916ZM86.2008 12.0055C86.2008 11.566 86.0938 11.216 85.8874 10.9393C85.6734 10.6707 85.4212 10.5323 85.1078 10.5323C84.8174 10.5323 84.5804 10.6707 84.374 10.9474C84.1753 11.2241 84.076 11.566 84.076 11.9892C84.076 12.4287 84.183 12.7787 84.397 13.0554C84.611 13.3321 84.8709 13.4624 85.1766 13.4624C85.467 13.4624 85.704 13.324 85.9104 13.0473C86.1014 12.7706 86.2008 12.4287 86.2008 12.0055Z" fill="#F9F9FA"/>
<path id="Vector_29" d="M91.016 14.04H90.2899C90.2899 13.9505 90.0224 13.5028 89.4797 12.6808C88.9141 11.818 88.5931 11.2238 88.509 10.9064H88.4631C88.509 11.3622 88.5396 11.7773 88.5396 12.1517C88.5396 12.6726 88.5549 13.2993 88.5778 14.04H87.8517C87.8823 13.3889 87.8975 12.6808 87.8975 11.8994C87.8975 11.1343 87.8823 10.4832 87.8517 9.94598H88.7307C88.7307 10.0599 88.9753 10.4995 89.4568 11.2727C89.9765 12.0947 90.2746 12.6563 90.351 12.9494H90.3969C90.351 12.4854 90.3281 12.0622 90.3281 11.6959C90.3281 11.1262 90.3128 10.5483 90.2899 9.94598H91.0237C90.9931 10.4669 90.9854 11.118 90.9854 11.8994C90.9778 12.6889 90.9854 13.397 91.016 14.04Z" fill="#F9F9FA"/>
</g>
</g>
<defs>
<linearGradient id="paint0_linear_1_788" x1="18.3783" y1="9.41701" x2="18.3783" y2="42.5465" gradientUnits="userSpaceOnUse">
<stop stop-color="#257CB0"/>
<stop offset="0.2863" stop-color="#4A93B5"/>
<stop offset="0.767" stop-color="#78BCBB"/>
<stop offset="1" stop-color="#89CFBD"/>
</linearGradient>
<linearGradient id="paint1_linear_1_788" x1="10.5344" y1="17.6393" x2="30.436" y2="17.6393" gradientUnits="userSpaceOnUse">
<stop stop-color="#52C1AD"/>
<stop offset="1" stop-color="#DEE89A"/>
</linearGradient>
<linearGradient id="paint2_linear_1_788" x1="20.4851" y1="25.9819" x2="20.4851" y2="42.667" gradientUnits="userSpaceOnUse">
<stop stop-color="#EC413D"/>
<stop offset="0.1668" stop-color="#DA4452"/>
<stop offset="0.5748" stop-color="#B0487A"/>
<stop offset="0.8619" stop-color="#954A92"/>
<stop offset="1" stop-color="#8A4A9D"/>
</linearGradient>
<linearGradient id="paint3_linear_1_788" x1="31.9477" y1="21.5327" x2="31.9477" y2="30.4309" gradientUnits="userSpaceOnUse">
<stop stop-color="#F58879"/>
<stop offset="0.1194" stop-color="#F69079"/>
<stop offset="0.7128" stop-color="#FCB877"/>
<stop offset="1" stop-color="#FEC874"/>
</linearGradient>
</defs>
</svg>
