<svg width="227" height="53" viewBox="0 0 227 53" fill="none" xmlns="http://www.w3.org/2000/svg">
<path d="M95.2642 6.45455H99.0568L103.062 16.2273H103.233L107.239 6.45455H111.031V21H108.048V11.5327H107.928L104.163 20.929H102.132L98.3679 11.4972H98.2472V21H95.2642V6.45455ZM116.072 21H112.777L117.798 6.45455H121.761L126.775 21H123.48L119.836 9.77841H119.723L116.072 21ZM115.866 15.2827H123.65V17.6832H115.866V15.2827ZM128.526 21V6.45455H134.265C135.363 6.45455 136.301 6.65104 137.077 7.04403C137.858 7.43229 138.453 7.9839 138.86 8.69886C139.272 9.40909 139.478 10.2448 139.478 11.206C139.478 12.1719 139.269 13.0028 138.853 13.6989C138.436 14.3902 137.832 14.9205 137.042 15.2898C136.256 15.6591 135.304 15.8438 134.186 15.8438H130.344V13.3722H133.689C134.276 13.3722 134.764 13.2917 135.152 13.1307C135.541 12.9697 135.829 12.7282 136.019 12.4062C136.213 12.0843 136.31 11.6842 136.31 11.206C136.31 10.723 136.213 10.3158 136.019 9.98438C135.829 9.65294 135.538 9.40199 135.145 9.23153C134.757 9.05634 134.267 8.96875 133.675 8.96875H131.601V21H128.526ZM136.381 14.3807L139.996 21H136.601L133.064 14.3807H136.381ZM141.651 21V6.45455H144.726V12.8679H144.918L150.152 6.45455H153.838L148.441 12.9673L153.902 21H150.223L146.239 15.0199L144.726 16.8665V21H141.651ZM155.44 21V6.45455H165.241V8.99006H158.515V12.456H164.737V14.9915H158.515V18.4645H165.27V21H155.44ZM167.132 8.99006V6.45455H179.078V8.99006H174.625V21H171.585V8.99006H167.132ZM184.121 6.45455V21H181.045V6.45455H184.121ZM198.817 6.45455V21H196.161L189.833 11.8452H189.726V21H186.651V6.45455H189.35L195.628 15.6023H195.756V6.45455H198.817ZM211.003 11.1562C210.903 10.8106 210.764 10.5052 210.584 10.2401C210.404 9.97017 210.184 9.7429 209.923 9.55824C209.668 9.36884 209.374 9.22443 209.043 9.125C208.716 9.02557 208.354 8.97585 207.956 8.97585C207.213 8.97585 206.559 9.16051 205.996 9.52983C205.437 9.89915 205.001 10.4366 204.689 11.142C204.376 11.8428 204.22 12.6998 204.22 13.7131C204.22 14.7263 204.374 15.5881 204.682 16.2983C204.99 17.0085 205.425 17.5507 205.989 17.9247C206.552 18.294 207.217 18.4787 207.984 18.4787C208.68 18.4787 209.275 18.3556 209.767 18.1094C210.264 17.8584 210.643 17.5057 210.903 17.0511C211.169 16.5966 211.301 16.0592 211.301 15.4389L211.926 15.5312H208.176V13.2159H214.263V15.0483C214.263 16.3267 213.993 17.4252 213.453 18.3438C212.913 19.2576 212.17 19.9631 211.223 20.4602C210.276 20.9527 209.192 21.1989 207.97 21.1989C206.607 21.1989 205.409 20.8982 204.376 20.2969C203.344 19.6908 202.539 18.8314 201.962 17.7188C201.389 16.6013 201.102 15.2756 201.102 13.7415C201.102 12.5625 201.273 11.5114 201.614 10.5881C201.959 9.66004 202.442 8.87405 203.062 8.23011C203.683 7.58617 204.405 7.09612 205.229 6.75994C206.053 6.42377 206.945 6.25568 207.906 6.25568C208.73 6.25568 209.497 6.37642 210.207 6.6179C210.918 6.85464 211.547 7.19081 212.097 7.62642C212.651 8.06203 213.103 8.58049 213.453 9.18182C213.804 9.77841 214.028 10.4366 214.128 11.1562H211.003ZM107.43 30.4545V45H104.774L98.446 35.8452H98.3395V45H95.2642V30.4545H97.9631L104.241 39.6023H104.369V30.4545H107.43ZM123.338 37.7273C123.338 39.3134 123.037 40.6629 122.436 41.7756C121.839 42.8883 121.025 43.7382 119.993 44.3253C118.965 44.9077 117.81 45.1989 116.527 45.1989C115.234 45.1989 114.074 44.9053 113.047 44.3182C112.019 43.7311 111.207 42.8812 110.61 41.7685C110.014 40.6558 109.716 39.3087 109.716 37.7273C109.716 36.1411 110.014 34.7917 110.61 33.679C111.207 32.5663 112.019 31.7187 113.047 31.1364C114.074 30.5492 115.234 30.2557 116.527 30.2557C117.81 30.2557 118.965 30.5492 119.993 31.1364C121.025 31.7187 121.839 32.5663 122.436 33.679C123.037 34.7917 123.338 36.1411 123.338 37.7273ZM120.22 37.7273C120.22 36.6998 120.066 35.8333 119.758 35.1278C119.455 34.4223 119.027 33.8873 118.473 33.5227C117.919 33.1581 117.27 32.9759 116.527 32.9759C115.783 32.9759 115.135 33.1581 114.581 33.5227C114.027 33.8873 113.596 34.4223 113.288 35.1278C112.985 35.8333 112.833 36.6998 112.833 37.7273C112.833 38.7547 112.985 39.6212 113.288 40.3267C113.596 41.0322 114.027 41.5672 114.581 41.9318C115.135 42.2964 115.783 42.4787 116.527 42.4787C117.27 42.4787 117.919 42.2964 118.473 41.9318C119.027 41.5672 119.455 41.0322 119.758 40.3267C120.066 39.6212 120.22 38.7547 120.22 37.7273ZM128.343 45L124.181 30.4545H127.54L129.948 40.5611H130.069L132.725 30.4545H135.602L138.251 40.5824H138.379L140.786 30.4545H144.146L139.984 45H136.987L134.217 35.4901H134.103L131.34 45H128.343Z" fill="url(#paint0_linear_150_35502)"/>
<path d="M32.3455 9.42171C36.5523 9.42171 40.2917 11.2599 42.8158 14.109L49.1727 9.88125C45.2464 5.01013 39.1699 1.88525 32.3455 1.88525C25.5212 1.88525 19.5382 4.91822 15.6118 9.78935L21.9688 14.0171C24.4928 11.168 28.2322 9.42171 32.3455 9.42171Z" fill="url(#paint1_linear_150_35502)"/>
<path d="M32.3453 36.5343C28.1385 36.5343 24.3991 34.6962 21.8751 31.847L15.7051 35.9829C16.3595 36.7182 17.1073 37.4534 17.8552 38.2806L32.5323 52.7102L47.7702 37.5453C48.2377 37.0858 48.7051 36.5343 49.1725 35.9829L42.909 31.7551C40.385 34.6962 36.5521 36.5343 32.3453 36.5343Z" fill="url(#paint2_linear_150_35502)"/>
<path d="M18.51 22.9321C18.51 20.6344 19.0709 18.4286 20.1927 16.4985L13.8357 12.2708C11.9661 15.3956 10.8442 19.0719 10.8442 22.9321C10.8442 27.1599 11.8726 30.4685 13.8357 33.5015L20.0992 29.2737C19.1644 27.4356 18.51 25.2298 18.51 22.9321Z" fill="url(#paint3_linear_150_35502)"/>
<path d="M50.9487 12.3608L44.5918 16.5886C45.6201 18.5187 46.181 20.6326 46.181 22.9303C46.181 25.1361 45.6201 27.3419 44.6853 29.18L51.0422 33.4078C53.0054 30.2829 53.9402 26.8823 53.9402 22.9303C53.8468 19.162 52.8184 15.4857 50.9487 12.3608Z" fill="url(#paint4_linear_150_35502)"/>
<path d="M32.3462 16.8643C35.7117 16.8643 38.5162 19.6215 38.5162 22.9302C38.5162 26.3308 35.7117 28.9961 32.3462 28.9961C28.8873 28.9961 26.1763 26.2389 26.1763 22.9302C26.1763 19.6215 28.9808 16.8643 32.3462 16.8643Z" fill="url(#paint5_linear_150_35502)"/>
<path d="M59.9235 6.29834C62.915 11.1695 64.6912 16.8678 64.6912 22.9337C64.6912 28.9996 62.915 34.6979 59.9235 39.4771L53.4731 35.1575C55.6232 31.5731 56.8385 27.4372 56.8385 22.9337C56.8385 18.4302 55.6232 14.2943 53.3796 10.618L59.9235 6.29834ZM4.76771 39.661C1.7762 34.7898 0 29.0915 0 22.9337C0 16.8678 1.7762 11.0776 4.86119 6.29834L11.3116 10.618C9.06799 14.2024 7.75921 18.4302 7.75921 22.9337C7.75921 27.4372 9.06799 31.665 11.2181 35.2494L4.76771 39.661Z" fill="url(#paint6_linear_150_35502)"/>
<path d="M77.8921 1V47.0272" stroke="white" strokeLinecap="round"/>
<defs>
<linearGradient id="paint0_linear_150_35502" x1="160.5" y1="2" x2="160.5" y2="44" gradientUnits="userSpaceOnUse">
<stop stop-color="#AA0000"/>
<stop offset="1" stop-color="#E80274"/>
</linearGradient>
<linearGradient id="paint1_linear_150_35502" x1="32.1216" y1="0.00312274" x2="32.0053" y2="15.0635" gradientUnits="userSpaceOnUse">
<stop offset="0.21875" stop-color="#AA0000"/>
<stop offset="0.9999" stop-color="#F1008E"/>
</linearGradient>
<linearGradient id="paint2_linear_150_35502" x1="32.1689" y1="28.5286" x2="31.826" y2="54.3433" gradientUnits="userSpaceOnUse">
<stop offset="0.21875" stop-color="#AA0000"/>
<stop offset="0.9999" stop-color="#F1008E"/>
</linearGradient>
<linearGradient id="paint3_linear_150_35502" x1="15.4431" y1="9.00179" x2="14.1857" y2="35.1002" gradientUnits="userSpaceOnUse">
<stop offset="0.21875" stop-color="#AA0000"/>
<stop offset="0.9999" stop-color="#F1008E"/>
</linearGradient>
<linearGradient id="paint4_linear_150_35502" x1="49.1906" y1="9.12018" x2="47.9549" y2="34.9937" gradientUnits="userSpaceOnUse">
<stop offset="0.21875" stop-color="#AA0000"/>
<stop offset="0.9999" stop-color="#F1008E"/>
</linearGradient>
<linearGradient id="paint5_linear_150_35502" x1="32.2467" y1="14.9963" x2="31.9351" y2="29.9378" gradientUnits="userSpaceOnUse">
<stop offset="0.21875" stop-color="#AA0000"/>
<stop offset="0.9999" stop-color="#F1008E"/>
</linearGradient>
<linearGradient id="paint6_linear_150_35502" x1="31.8239" y1="1.1614" x2="31.3743" y2="42.2634" gradientUnits="userSpaceOnUse">
<stop offset="0.21875" stop-color="#AA0000"/>
<stop offset="0.9999" stop-color="#F1008E"/>
</linearGradient>
</defs>
</svg>
