<svg width="603" height="474" viewBox="0 0 603 474" fill="none" xmlns="http://www.w3.org/2000/svg">
<path d="M301.471 70.2428C340.68 70.2428 375.533 87.3751 399.058 113.93L458.307 74.5258C421.712 29.125 365.077 0 301.471 0C237.866 0 182.102 28.2684 145.507 73.6692L204.756 113.074C228.281 86.5185 263.134 70.2428 301.471 70.2428Z" fill="url(#paint0_linear_142_77)"/>
<path d="M301.467 322.946C262.258 322.946 227.406 305.813 203.88 279.258L146.374 317.806C152.473 324.659 159.443 331.512 166.414 339.221L303.21 473.71L445.233 332.368C449.59 328.085 453.947 322.946 458.303 317.806L399.925 278.401C376.4 305.813 340.676 322.946 301.467 322.946Z" fill="url(#paint1_linear_142_77)"/>
<path d="M172.521 196.166C172.521 174.75 177.749 154.191 188.204 136.202L128.955 96.7979C111.529 125.923 101.073 160.188 101.073 196.166C101.073 235.57 110.658 266.408 128.955 294.677L187.333 255.272C178.62 238.14 172.521 217.581 172.521 196.166Z" fill="url(#paint2_linear_142_77)"/>
<path d="M474.863 97.6384L415.614 137.043C425.198 155.032 430.426 174.734 430.426 196.15C430.426 216.708 425.198 237.267 416.485 254.4L475.734 293.804C494.032 264.679 502.745 232.984 502.745 196.15C501.874 161.028 492.289 126.763 474.863 97.6384Z" fill="url(#paint3_linear_142_77)"/>
<path d="M301.48 139.611C332.848 139.611 358.987 165.309 358.987 196.147C358.987 227.842 332.848 252.684 301.48 252.684C269.242 252.684 243.974 226.986 243.974 196.147C243.974 165.309 270.113 139.611 301.48 139.611Z" fill="url(#paint4_linear_142_77)"/>
<path d="M558.511 41.1321C586.393 86.5329 602.948 139.643 602.948 196.18C602.948 252.717 586.393 305.827 558.511 350.372L498.39 310.11C518.43 276.702 529.757 238.154 529.757 196.18C529.757 154.206 518.43 115.658 497.519 81.3932L558.511 41.1321ZM44.4369 352.085C16.5549 306.684 0 253.574 0 196.18C0 139.643 16.5549 85.6763 45.3082 41.1321L105.429 81.3932C84.5172 114.801 72.3189 154.206 72.3189 196.18C72.3189 238.154 84.5172 277.559 104.557 310.967L44.4369 352.085Z" fill="url(#paint5_linear_142_77)"/>
<defs>
<linearGradient id="paint0_linear_142_77" x1="299.385" y1="-17.5422" x2="298.3" y2="122.826" gradientUnits="userSpaceOnUse">
<stop offset="0.21875" stop-color="#AA0000"/>
<stop offset="0.9999" stop-color="#F1008E"/>
</linearGradient>
<linearGradient id="paint1_linear_142_77" x1="299.823" y1="248.329" x2="296.627" y2="488.932" gradientUnits="userSpaceOnUse">
<stop offset="0.21875" stop-color="#AA0000"/>
<stop offset="0.9999" stop-color="#F1008E"/>
</linearGradient>
<linearGradient id="paint2_linear_142_77" x1="143.936" y1="66.3298" x2="132.217" y2="309.577" gradientUnits="userSpaceOnUse">
<stop offset="0.21875" stop-color="#AA0000"/>
<stop offset="0.9999" stop-color="#F1008E"/>
</linearGradient>
<linearGradient id="paint3_linear_142_77" x1="458.477" y1="67.4342" x2="446.96" y2="308.585" gradientUnits="userSpaceOnUse">
<stop offset="0.21875" stop-color="#AA0000"/>
<stop offset="0.9999" stop-color="#F1008E"/>
</linearGradient>
<linearGradient id="paint4_linear_142_77" x1="300.553" y1="122.2" x2="297.649" y2="261.461" gradientUnits="userSpaceOnUse">
<stop offset="0.21875" stop-color="#AA0000"/>
<stop offset="0.9999" stop-color="#F1008E"/>
</linearGradient>
<linearGradient id="paint5_linear_142_77" x1="296.612" y1="-6.74625" x2="292.42" y2="376.341" gradientUnits="userSpaceOnUse">
<stop offset="0.21875" stop-color="#AA0000"/>
<stop offset="0.9999" stop-color="#F1008E"/>
</linearGradient>
</defs>
</svg>
