<svg width="8" height="11" viewBox="0 0 8 11" fill="none" xmlns="http://www.w3.org/2000/svg">
<path d="M4.74489 7.31026L3.48656 7.48979C2.21658 7.67084 1.04127 6.73972 0.867959 5.41303L0.611632 3.4595C0.438321 2.13281 1.32964 0.906526 2.60107 0.725475L3.8594 0.545945C5.12938 0.364894 6.30324 1.29601 6.47801 2.62271L6.73288 4.57624C6.90619 5.90141 6.01487 7.12921 4.74489 7.31026ZM2.71322 1.59117C1.90055 1.7068 1.32964 2.49186 1.44032 3.34083L1.69665 5.29435C1.80734 6.14332 2.55884 6.73972 3.37151 6.62409L4.62984 6.44456C5.44251 6.32893 6.01342 5.54387 5.90273 4.69491L5.6464 2.74138C5.53572 1.89242 4.78422 1.29601 3.97155 1.41164L2.71322 1.59117Z" fill="url(#paint0_linear_4688_5714)"/>
<path d="M5.46007 10.7157L3.67306 10.9713C2.0652 11.2011 0.584042 10.025 0.364125 8.34533L0.276741 7.68046C0.0568252 6.0008 1.18117 4.45349 2.78903 4.22376L4.57603 3.96815C6.1839 3.73842 7.66505 4.91297 7.88497 6.59264L7.97235 7.2575C8.19227 8.93869 7.06793 10.486 5.46007 10.7157Z" fill="url(#paint1_linear_4688_5714)"/>
<path d="M1.232 7.95032C0.926154 7.70993 0.598465 7.42086 0.294077 7.09375C0.267862 7.34935 0.267862 7.61256 0.302816 7.87881L0.337769 8.15115C0.572249 9.93884 2.14953 11.1895 3.8608 10.946L5.27205 10.7437C6.72699 10.5352 7.80764 9.31201 7.95474 7.85143C5.91286 9.25115 3.1894 9.31961 1.232 7.95032Z" fill="url(#paint2_linear_4688_5714)"/>
<path d="M4.80027 6.31509C4.85998 6.77152 4.55414 7.19296 4.11722 7.25533C3.6803 7.31771 3.27688 6.99821 3.21717 6.54178C3.15745 6.08535 3.4633 5.66391 3.90022 5.60153C4.33714 5.53915 4.74056 5.85865 4.80027 6.31509Z" fill="#C7D6D6"/>
<path d="M4.00797 6.42969L3.65698 9.07851L5.13377 8.86703L4.00797 6.42969Z" fill="#C7D6D6"/>
<path d="M4.49587 6.78682L3.23754 6.96635C1.96756 7.1474 0.793703 6.21628 0.618935 4.88959L0.362609 2.93758C0.189297 1.61089 1.08061 0.383089 2.35205 0.202037L3.61038 0.0225076C4.88036 -0.158544 6.05422 0.772577 6.22898 2.09927L6.48385 4.0528C6.65717 5.37949 5.76585 6.60577 4.49587 6.78682ZM2.46419 1.06774C1.65152 1.18337 1.08061 1.96843 1.1913 2.81739L1.44763 4.77092C1.55831 5.61988 2.30981 6.21628 3.12249 6.10065L4.38081 5.92112C5.19348 5.8055 5.76439 5.02043 5.65371 4.17147L5.39738 2.21794C5.28669 1.36898 4.53519 0.772577 3.72252 0.888206L2.46419 1.06774Z" fill="#EA0274"/>
<path d="M5.21104 10.1927L3.42404 10.4483C1.81618 10.678 0.335018 9.50196 0.115102 7.82382L0.027718 7.15895C-0.192198 5.47928 0.932142 3.93198 2.54001 3.70224L4.32701 3.44664C5.93487 3.2169 7.41603 4.39297 7.63595 6.07112L7.72333 6.73599C7.94325 8.41566 6.81891 9.96296 5.21104 10.1927Z" fill="#EA0274"/>
<path d="M0.982975 7.42688C0.677131 7.1865 0.349441 6.89742 0.0450537 6.57031C0.0188385 6.82591 0.0188385 7.08912 0.0537921 7.35537L0.0902021 7.62771C0.323226 9.4154 1.90051 10.666 3.61177 10.4211L5.02303 10.2187C6.47797 10.0103 7.55862 8.78705 7.70571 7.32647C5.66384 8.72771 2.94037 8.79618 0.982975 7.42688Z" fill="#FF49A3"/>
<path d="M4.55125 5.7936C4.61096 6.25003 4.30512 6.67147 3.8682 6.73385C3.43128 6.79623 3.02785 6.47673 2.96814 6.0203C2.90843 5.56386 3.21427 5.14243 3.65119 5.08005C4.08811 5.01767 4.49154 5.33717 4.55125 5.7936Z" fill="black"/>
<path d="M3.75895 5.90625L3.40796 8.55507L4.88475 8.34512L3.75895 5.90625Z" fill="black"/>
<defs>
<linearGradient id="paint0_linear_4688_5714" x1="3.67226" y1="0.523437" x2="3.67226" y2="7.5123" gradientUnits="userSpaceOnUse">
<stop stop-color="#C7D6D6"/>
<stop offset="1" stop-color="#C7D6D6" stop-opacity="0"/>
</linearGradient>
<linearGradient id="paint1_linear_4688_5714" x1="4.12455" y1="3.93945" x2="4.12455" y2="11" gradientUnits="userSpaceOnUse">
<stop stop-color="#C7D6D6"/>
<stop offset="1" stop-color="#C7D6D6" stop-opacity="0"/>
</linearGradient>
<linearGradient id="paint2_linear_4688_5714" x1="4.11506" y1="7.09375" x2="4.11506" y2="10.9763" gradientUnits="userSpaceOnUse">
<stop stop-color="#C7D6D6"/>
<stop offset="1" stop-color="#C7D6D6" stop-opacity="0"/>
</linearGradient>
</defs>
</svg>
